<mxfile host="app.diagrams.net" modified="2022-01-28T08:41:54.939Z" agent="5.0 (Macintosh; Intel Mac OS X 10_15_7) AppleWebKit/537.36 (KHTML, like Gecko) Chrome/96.0.4664.110 Safari/537.36" etag="uc0KPq_SrpzcJRDRAl6G" version="16.4.11" type="github">
  <diagram id="IzafgBuDMXGADewegFQN" name="Page-1">
    <mxGraphModel dx="946" dy="507" grid="1" gridSize="10" guides="1" tooltips="1" connect="1" arrows="1" fold="1" page="1" pageScale="1" pageWidth="827" pageHeight="1169" math="0" shadow="0">
      <root>
        <mxCell id="0" />
        <mxCell id="1" parent="0" />
        <mxCell id="IROE_s44y8OKHttLXpRJ-1" value="VPC" style="sketch=0;outlineConnect=0;gradientColor=none;html=1;whiteSpace=wrap;fontSize=12;fontStyle=0;shape=mxgraph.aws4.group;grIcon=mxgraph.aws4.group_vpc;strokeColor=#879196;fillColor=none;verticalAlign=top;align=left;spacingLeft=30;fontColor=#879196;dashed=0;" vertex="1" parent="1">
          <mxGeometry x="40" y="80" width="760" height="440" as="geometry" />
        </mxCell>
        <mxCell id="IROE_s44y8OKHttLXpRJ-3" value="" style="rounded=1;whiteSpace=wrap;html=1;fillColor=#fff2cc;dashed=1;strokeColor=#d6b656;" vertex="1" parent="1">
          <mxGeometry x="80" y="120" width="680" height="160" as="geometry" />
        </mxCell>
        <mxCell id="IROE_s44y8OKHttLXpRJ-4" value="" style="rounded=1;whiteSpace=wrap;html=1;fillColor=#fff2cc;dashed=1;strokeColor=#d6b656;" vertex="1" parent="1">
          <mxGeometry x="80" y="320" width="680" height="160" as="geometry" />
        </mxCell>
        <mxCell id="IROE_s44y8OKHttLXpRJ-5" value="" style="rounded=1;whiteSpace=wrap;html=1;dashed=1;fillColor=#f5f5f5;dashPattern=1 4;fontColor=#333333;strokeColor=#666666;" vertex="1" parent="1">
          <mxGeometry x="120" y="130" width="160" height="340" as="geometry" />
        </mxCell>
        <mxCell id="IROE_s44y8OKHttLXpRJ-6" value="" style="rounded=1;whiteSpace=wrap;html=1;dashed=1;fillColor=#f5f5f5;dashPattern=1 4;fontColor=#333333;strokeColor=#666666;" vertex="1" parent="1">
          <mxGeometry x="340" y="130" width="160" height="340" as="geometry" />
        </mxCell>
        <mxCell id="IROE_s44y8OKHttLXpRJ-7" value="" style="rounded=1;whiteSpace=wrap;html=1;dashed=1;fillColor=#f5f5f5;dashPattern=1 4;fontColor=#333333;strokeColor=#666666;" vertex="1" parent="1">
          <mxGeometry x="560" y="130" width="160" height="340" as="geometry" />
        </mxCell>
        <mxCell id="IROE_s44y8OKHttLXpRJ-9" value="&lt;span style=&quot;background-color: rgb(255 , 255 , 255)&quot;&gt;Public Subnet 1&lt;/span&gt;" style="rounded=1;whiteSpace=wrap;html=1;strokeWidth=2;fillWeight=4;hachureGap=8;hachureAngle=45;fillColor=#1ba1e2;sketch=1;dashed=1;dashPattern=1 4;" vertex="1" parent="1">
          <mxGeometry x="140" y="170" width="120" height="80" as="geometry" />
        </mxCell>
        <mxCell id="IROE_s44y8OKHttLXpRJ-10" value="&lt;span style=&quot;background-color: rgb(255 , 255 , 255)&quot;&gt;Public Subnet 2&lt;/span&gt;" style="rounded=1;whiteSpace=wrap;html=1;strokeWidth=2;fillWeight=4;hachureGap=8;hachureAngle=45;fillColor=#1ba1e2;sketch=1;dashed=1;dashPattern=1 4;" vertex="1" parent="1">
          <mxGeometry x="140" y="340" width="120" height="80" as="geometry" />
        </mxCell>
        <mxCell id="IROE_s44y8OKHttLXpRJ-11" value="&lt;span style=&quot;background-color: rgb(255 , 255 , 255)&quot;&gt;Private Subnet 1&lt;br&gt;(App)&lt;br&gt;&lt;/span&gt;" style="rounded=1;whiteSpace=wrap;html=1;strokeWidth=2;fillWeight=4;hachureGap=8;hachureAngle=45;fillColor=#FFB366;sketch=1;dashed=1;dashPattern=1 4;" vertex="1" parent="1">
          <mxGeometry x="360" y="170" width="120" height="80" as="geometry" />
        </mxCell>
        <mxCell id="IROE_s44y8OKHttLXpRJ-12" value="&lt;span style=&quot;background-color: rgb(255 , 255 , 255)&quot;&gt;Private Subnet 1&lt;/span&gt;&lt;br&gt;&lt;span style=&quot;background-color: rgb(255 , 255 , 255)&quot;&gt;(App)&lt;/span&gt;" style="rounded=1;whiteSpace=wrap;html=1;strokeWidth=2;fillWeight=4;hachureGap=8;hachureAngle=45;fillColor=#FFB366;sketch=1;dashed=1;dashPattern=1 4;" vertex="1" parent="1">
          <mxGeometry x="360" y="340" width="120" height="80" as="geometry" />
        </mxCell>
        <mxCell id="IROE_s44y8OKHttLXpRJ-13" value="&lt;span style=&quot;background-color: rgb(255 , 255 , 255)&quot;&gt;Private Subnet 1&lt;br&gt;(DB)&lt;br&gt;&lt;/span&gt;" style="rounded=1;whiteSpace=wrap;html=1;strokeWidth=2;fillWeight=4;hachureGap=8;hachureAngle=45;fillColor=#97D077;sketch=1;dashed=1;dashPattern=1 4;" vertex="1" parent="1">
          <mxGeometry x="580" y="170" width="120" height="80" as="geometry" />
        </mxCell>
        <mxCell id="IROE_s44y8OKHttLXpRJ-14" value="&lt;span style=&quot;background-color: rgb(255 , 255 , 255)&quot;&gt;Private Subnet 2&lt;br&gt;(DB)&lt;br&gt;&lt;/span&gt;" style="rounded=1;whiteSpace=wrap;html=1;strokeWidth=2;fillWeight=4;hachureGap=8;hachureAngle=45;fillColor=#97D077;sketch=1;dashed=1;dashPattern=1 4;" vertex="1" parent="1">
          <mxGeometry x="580" y="340" width="120" height="80" as="geometry" />
        </mxCell>
        <mxCell id="IROE_s44y8OKHttLXpRJ-15" value="Text" style="text;html=1;strokeColor=none;fillColor=none;align=center;verticalAlign=middle;whiteSpace=wrap;rounded=0;dashed=1;dashPattern=1 4;labelBackgroundColor=#FFFFFF;" vertex="1" parent="1">
          <mxGeometry x="380" y="290" width="60" height="30" as="geometry" />
        </mxCell>
        <mxCell id="IROE_s44y8OKHttLXpRJ-16" value="&lt;font style=&quot;font-size: 15px&quot;&gt;Availability Zone 1&amp;nbsp;&lt;/font&gt;" style="text;html=1;strokeColor=none;fillColor=none;align=center;verticalAlign=middle;whiteSpace=wrap;rounded=0;dashed=1;dashPattern=1 4;labelBackgroundColor=#FFFFFF;" vertex="1" parent="1">
          <mxGeometry x="325" y="90" width="190" height="30" as="geometry" />
        </mxCell>
        <mxCell id="IROE_s44y8OKHttLXpRJ-17" value="&lt;font style=&quot;font-size: 15px&quot;&gt;Availability Zone 2&amp;nbsp;&lt;/font&gt;" style="text;html=1;strokeColor=none;fillColor=none;align=center;verticalAlign=middle;whiteSpace=wrap;rounded=0;dashed=1;dashPattern=1 4;labelBackgroundColor=#FFFFFF;" vertex="1" parent="1">
          <mxGeometry x="325" y="480" width="190" height="30" as="geometry" />
        </mxCell>
      </root>
    </mxGraphModel>
  </diagram>
</mxfile>
